<?xml version="1.0" encoding="utf-8"?>
<!-- Generator: Adobe Illustrator 15.1.0, SVG Export Plug-In . SVG Version: 6.00 Build 0)  -->
<!DOCTYPE svg PUBLIC "-//W3C//DTD SVG 1.1//EN" "http://www.w3.org/Graphics/SVG/1.1/DTD/svg11.dtd">
<svg version="1.1" id="Layer_1" xmlns="http://www.w3.org/2000/svg" xmlns:xlink="http://www.w3.org/1999/xlink" x="0px" y="0px"
	 width="242.025px" height="57.667px" viewBox="0 0 242.025 57.667" enable-background="new 0 0 242.025 57.667"
	 xml:space="preserve">
<g>
	<g>
		<path fill="#FFFFFF" d="M51.947,35.181c-0.957,0.191-1.436-0.24-1.578-1.197c-0.335-1.961-1.913-3.205-4.162-3.205
			c-1.867,0-3.015,1.102-2.823,2.202c0.67,3.729,15.788,3.636,15.788,14.64c0,1.436-1.626,9.902-12.965,9.902
			c-10.048,0-12.201-6.602-12.438-10.333c-0.048-0.86,0.383-1.387,1.244-1.579l5.405-1.195c0.957-0.19,1.482,0.238,1.579,1.244
			c0.19,2.297,1.961,3.635,4.21,3.635c2.344,0,4.066-1.387,3.779-2.678c-0.909-4.066-15.312-3.156-15.312-14.16
			c-0.048-1.437,0.813-9.905,11.531-9.905c9.855,0,12.151,6.41,12.438,9.856c0.048,0.861-0.383,1.387-1.244,1.578L51.947,35.181z"/>
		<path fill="#FFFFFF" d="M81.25,48.417c0,2.511-0.533,9.25-9.554,9.25c-9.023,0-9.556-6.738-9.556-9.25V38.9
			c0-2.512,0.531-9.25,9.556-9.25c9.021,0,9.554,6.738,9.554,9.25V48.417z M74.703,40.917c0-2.932-0.19-4.721-3.007-4.721
			c-2.818,0-3.009,1.79-3.009,4.721v5.481c0,2.933,0.189,4.722,3.009,4.722c2.815,0,3.007-1.789,3.007-4.722V40.917z"/>
		<path fill="#FFFFFF" d="M89.854,30.333c0.762,0,1.142,0.383,1.142,1.145v14.921c0,2.933,0.191,4.722,3.008,4.722
			c2.817,0,3.009-1.789,3.009-4.722V31.478c0-0.762,0.418-1.145,1.141-1.145h4.264c0.764,0,1.144,0.383,1.144,1.145v16.939
			c0,2.511-0.533,9.25-9.556,9.25c-9.021,0-9.556-6.738-9.556-9.25V31.478c0-0.762,0.419-1.145,1.143-1.145H89.854z"/>
		<path fill="#FFFFFF" d="M113.876,30.333c0.646,0,1.066,0.268,1.334,0.875l5.177,12.678c0.151,0.343,0.454,0.267,0.454-0.113
			V31.478c0-0.762,0.423-1.145,1.146-1.145h4.264c0.76,0,1.142,0.383,1.142,1.145v24.361c0,0.723-0.382,1.143-1.142,1.143h-5.598
			c-0.646,0-1.064-0.268-1.33-0.875l-5.178-12.677c-0.154-0.343-0.457-0.267-0.457,0.114v12.295c0,0.723-0.381,1.143-1.144,1.143
			h-4.263c-0.724,0-1.142-0.42-1.142-1.143V31.478c0-0.762,0.418-1.145,1.142-1.145H113.876z"/>
		<path fill="#FFFFFF" d="M140.832,30.333c7.156,0,9.518,2.895,9.518,9.138v8.337c0,6.242-2.36,9.174-9.518,9.174h-8.489
			c-0.724,0-1.143-0.42-1.143-1.143V31.515c0-0.76,0.38-1.143,1.143-1.182H140.832z M140.946,50.434c1.826,0,2.74-0.306,2.74-2.587
			c0-0.039,0-8.338,0-8.375c0-2.36-0.914-2.588-2.74-2.588h-2.057c-0.724,0-1.143,0.38-1.143,1.142v11.269
			c0,0.722,0.419,1.142,1.143,1.142h2.057V50.434z"/>
		<path fill="#FFFFFF" d="M177.283,46.041c0,3.158-0.67,11.625-12.009,11.625c-11.338,0-12.009-8.467-12.009-11.625V34.08
			c0-3.158,0.671-11.625,12.009-11.625c11.339,0,12.009,8.466,12.009,11.625V46.041z M169.054,36.617c0-3.684-0.24-5.934-3.78-5.934
			s-3.779,2.25-3.779,5.934v6.889c0,3.685,0.239,5.933,3.779,5.933s3.78-2.249,3.78-5.933V36.617z"/>
		<path fill="#FFFFFF" d="M198.441,30.333c0.761,0,1.142,0.383,1.142,1.145v4.264c0,0.723-0.381,1.143-1.142,1.143h-9.593
			c-0.725,0-1.144,0.38-1.144,1.142v1.218c0,0.723,0.419,1.141,1.144,1.141h6.28c0.762,0,1.143,0.382,1.143,1.144v4.263
			c0,0.723-0.381,1.143-1.143,1.143h-6.28c-0.725,0-1.144,0.381-1.144,1.143v7.766c0,0.722-0.38,1.142-1.143,1.142h-4.491
			c-0.724,0-1.142-0.42-1.142-1.142V31.478c0-0.762,0.418-1.145,1.142-1.145H198.441z"/>
		<path fill="#FFFFFF" d="M219.38,30.333c0.761,0,1.142,0.383,1.142,1.145v4.264c0,0.723-0.381,1.143-1.142,1.143h-9.595
			c-0.724,0-1.143,0.38-1.143,1.142v1.218c0,0.723,0.419,1.141,1.143,1.141h6.281c0.761,0,1.143,0.382,1.143,1.144v4.263
			c0,0.723-0.382,1.143-1.143,1.143h-6.281c-0.724,0-1.143,0.381-1.143,1.143v7.766c0,0.722-0.379,1.142-1.142,1.142h-4.492
			c-0.724,0-1.143-0.42-1.143-1.142V31.478c0-0.762,0.419-1.145,1.143-1.145H219.38z"/>
	</g>
	<path fill="#DC4C6C" d="M184.083,14.472c-5.601-5.314-12.953-7.662-20.101-7.095l0.096,3.698c6.203-0.548,12.603,1.46,17.463,6.075
		c3.149,2.989,5.238,6.679,6.26,10.6h3.796C190.505,22.838,188,18.188,184.083,14.472z"/>
	<path fill="#DC4C6C" d="M179.371,19.484c-4.228-4.015-9.816-5.729-15.208-5.185l0.091,3.549c4.483-0.528,9.161,0.858,12.684,4.2
		c1.736,1.648,3.011,3.604,3.821,5.701h3.742C183.559,24.696,181.849,21.835,179.371,19.484z"/>
	<path fill="#DC4C6C" d="M189.107,9.179c-7.061-6.7-16.297-9.711-25.316-9.102l0.099,3.691c8.072-0.587,16.357,2.087,22.679,8.087
		c4.663,4.427,7.569,10.017,8.708,15.894h3.749C197.846,20.887,194.535,14.332,189.107,9.179z"/>
</g>
<g>
	<path fill="#FFFFFF" d="M24.599,36.667c-0.306,0-0.456,0.151-0.559,0.455l-0.859,4.051c-0.052,0.354,0.102,0.557,0.456,0.557h4.81
		c1.062,0,1.569,0.607,1.366,1.67l-0.404,2.025c-0.203,0.91-0.76,1.367-1.671,1.367h-5.266c-0.305,0-0.507,0.151-0.558,0.455
		l-1.771,8.303c-0.202,0.912-0.76,1.367-1.671,1.367h-1.975c-1.062,0-1.569-0.606-1.367-1.67l1.671-7.898
		c0.102-0.354-0.102-0.557-0.455-0.557h-4c-0.305,0-0.507,0.151-0.558,0.455l-1.771,8.303c-0.203,0.912-0.761,1.367-1.671,1.367
		H6.373c-1.062,0-1.568-0.606-1.367-1.67l1.671-7.898c0.103-0.354-0.102-0.557-0.455-0.557H1.461c-1.113,0-1.62-0.607-1.418-1.67
		l0.405-2.025C0.65,42.186,1.259,41.73,2.17,41.73h5.267c0.304,0,0.455-0.152,0.557-0.456l0.86-4.05
		c0.051-0.354-0.103-0.557-0.455-0.557H3.587c-1.062,0-1.568-0.607-1.365-1.672l0.403-2.024c0.203-0.912,0.76-1.367,1.671-1.367
		h5.267c0.304,0,0.506-0.151,0.557-0.456l1.772-8.303c0.201-0.911,0.759-1.367,1.671-1.367h1.975c1.063,0,1.569,0.607,1.366,1.67
		l-1.671,7.898c-0.102,0.354,0.102,0.557,0.456,0.557h4c0.304,0,0.506-0.152,0.557-0.456l1.772-8.303
		c0.201-0.911,0.759-1.367,1.67-1.367h1.975c1.063,0,1.569,0.607,1.367,1.67l-1.671,7.897c-0.102,0.354,0.102,0.558,0.456,0.558
		h4.759c1.062,0,1.569,0.606,1.367,1.671L31.535,35.3c-0.202,0.912-0.76,1.367-1.671,1.367H24.599z M18.979,37.224
		c0.051-0.354-0.103-0.557-0.456-0.557h-4.05c-0.305,0-0.456,0.151-0.558,0.455l-0.86,4.051c-0.052,0.354,0.102,0.557,0.455,0.557
		h4.051c0.304,0,0.456-0.152,0.558-0.456L18.979,37.224z"/>
</g>
</svg>
