<?xml version="1.0" encoding="utf-8"?>
<!-- Generator: Adobe Illustrator 16.0.0, SVG Export Plug-In . SVG Version: 6.00 Build 0)  -->
<!DOCTYPE svg PUBLIC "-//W3C//DTD SVG 1.1//EN" "http://www.w3.org/Graphics/SVG/1.1/DTD/svg11.dtd">
<svg version="1.1" id="Layer_1" xmlns="http://www.w3.org/2000/svg" xmlns:xlink="http://www.w3.org/1999/xlink" x="0px" y="0px"
	 width="242.025px" height="57.667px" viewBox="0 0 242.025 57.667" enable-background="new 0 0 242.025 57.667"
	 xml:space="preserve">
<g>
	<g>
		<path d="M51.947,35.181c-0.957,0.191-1.436-0.24-1.578-1.197c-0.335-1.961-1.913-3.205-4.162-3.205
			c-1.867,0-3.015,1.101-2.823,2.202c0.669,3.73,15.788,3.636,15.788,14.64c0,1.435-1.626,9.902-12.965,9.902
			c-10.048,0-12.201-6.601-12.439-10.333c-0.048-0.86,0.383-1.387,1.244-1.579l5.406-1.196c0.957-0.19,1.482,0.239,1.579,1.244
			c0.19,2.297,1.961,3.636,4.21,3.636c2.344,0,4.066-1.387,3.779-2.678c-0.909-4.067-15.311-3.157-15.311-14.161
			c-0.048-1.436,0.813-9.904,11.531-9.904c9.855,0,12.151,6.41,12.438,9.855c0.048,0.862-0.383,1.388-1.244,1.579L51.947,35.181z"/>
		<path d="M81.25,48.417c0,2.511-0.533,9.25-9.554,9.25c-9.023,0-9.556-6.738-9.556-9.25V38.9c0-2.512,0.532-9.25,9.556-9.25
			c9.021,0,9.554,6.738,9.554,9.25V48.417z M74.703,40.917c0-2.931-0.191-4.72-3.007-4.72c-2.818,0-3.009,1.79-3.009,4.72v5.482
			c0,2.932,0.19,4.721,3.009,4.721c2.815,0,3.007-1.789,3.007-4.721V40.917z"/>
		<path d="M89.854,30.334c0.762,0,1.142,0.383,1.142,1.144v14.921c0,2.932,0.191,4.721,3.008,4.721c2.817,0,3.008-1.789,3.008-4.721
			V31.478c0-0.761,0.418-1.144,1.141-1.144h4.264c0.763,0,1.143,0.383,1.143,1.144v16.939c0,2.511-0.533,9.25-9.555,9.25
			s-9.556-6.738-9.556-9.25V31.478c0-0.761,0.419-1.144,1.143-1.144H89.854z"/>
		<path d="M113.876,30.334c0.646,0,1.066,0.267,1.334,0.875l5.176,12.677c0.152,0.343,0.455,0.267,0.455-0.113V31.478
			c0-0.761,0.422-1.144,1.145-1.144h4.264c0.76,0,1.141,0.383,1.141,1.144V55.84c0,0.722-0.381,1.142-1.141,1.142h-5.598
			c-0.646,0-1.064-0.267-1.33-0.875l-5.178-12.677c-0.154-0.343-0.457-0.267-0.457,0.114V55.84c0,0.722-0.381,1.142-1.143,1.142
			h-4.263c-0.724,0-1.142-0.42-1.142-1.142V31.478c0-0.761,0.418-1.144,1.142-1.144H113.876z"/>
		<path d="M140.832,30.334c7.156,0,9.517,2.894,9.517,9.137v8.337c0,6.242-2.36,9.174-9.517,9.174h-8.489
			c-0.724,0-1.143-0.42-1.143-1.142V31.515c0-0.76,0.38-1.142,1.143-1.181H140.832z M140.946,50.434c1.826,0,2.74-0.305,2.74-2.587
			c0-0.039,0-8.338,0-8.375c0-2.36-0.914-2.588-2.74-2.588h-2.057c-0.723,0-1.142,0.38-1.142,1.142v11.268
			c0,0.722,0.419,1.142,1.142,1.142H140.946z"/>
		<path d="M177.283,46.041c0,3.158-0.67,11.625-12.009,11.625c-11.338,0-12.009-8.467-12.009-11.625V34.08
			c0-3.159,0.671-11.625,12.009-11.625c11.339,0,12.009,8.467,12.009,11.625V46.041z M169.054,36.617c0-3.684-0.24-5.934-3.78-5.934
			s-3.779,2.25-3.779,5.934v6.889c0,3.684,0.239,5.932,3.779,5.932s3.78-2.249,3.78-5.932V36.617z"/>
		<path d="M198.441,30.334c0.761,0,1.142,0.383,1.142,1.144v4.263c0,0.723-0.381,1.143-1.142,1.143h-9.593
			c-0.724,0-1.143,0.38-1.143,1.142v1.217c0,0.724,0.419,1.142,1.143,1.142h6.281c0.761,0,1.142,0.381,1.142,1.143v4.263
			c0,0.722-0.381,1.142-1.142,1.142h-6.281c-0.724,0-1.143,0.381-1.143,1.142v7.766c0,0.722-0.38,1.142-1.143,1.142h-4.491
			c-0.724,0-1.142-0.42-1.142-1.142V31.478c0-0.761,0.418-1.144,1.142-1.144H198.441z"/>
		<path d="M219.38,30.334c0.76,0,1.141,0.383,1.141,1.144v4.263c0,0.723-0.381,1.143-1.141,1.143h-9.595
			c-0.724,0-1.143,0.38-1.143,1.142v1.217c0,0.724,0.419,1.142,1.143,1.142h6.281c0.761,0,1.143,0.381,1.143,1.143v4.263
			c0,0.722-0.382,1.142-1.143,1.142h-6.281c-0.724,0-1.143,0.381-1.143,1.142v7.766c0,0.722-0.379,1.142-1.141,1.142h-4.492
			c-0.724,0-1.143-0.42-1.143-1.142V31.478c0-0.761,0.419-1.144,1.143-1.144H219.38z"/>
	</g>
	<path fill="#DC4C6C" d="M184.083,14.472c-5.601-5.314-12.953-7.662-20.101-7.095l0.096,3.698c6.203-0.548,12.602,1.46,17.463,6.075
		c3.149,2.989,5.238,6.679,6.26,10.6h3.795C190.505,22.838,188,18.188,184.083,14.472z"/>
	<path fill="#DC4C6C" d="M179.371,19.484c-4.228-4.015-9.817-5.729-15.208-5.185l0.091,3.549c4.483-0.528,9.161,0.858,12.683,4.2
		c1.737,1.648,3.011,3.604,3.822,5.701h3.742C183.559,24.696,181.849,21.835,179.371,19.484z"/>
	<path fill="#DC4C6C" d="M189.107,9.179c-7.06-6.7-16.297-9.711-25.316-9.102l0.098,3.691c8.073-0.587,16.358,2.087,22.679,8.087
		c4.663,4.427,7.569,10.017,8.708,15.894h3.749C197.846,20.887,194.535,14.332,189.107,9.179z"/>
</g>
<g>
	<path d="M24.599,36.667c-0.305,0-0.456,0.152-0.558,0.456l-0.86,4.05c-0.051,0.354,0.102,0.557,0.456,0.557h4.81
		c1.063,0,1.569,0.607,1.366,1.67l-0.404,2.025c-0.203,0.911-0.76,1.367-1.671,1.367h-5.266c-0.304,0-0.506,0.152-0.557,0.456
		l-1.772,8.303c-0.202,0.912-0.759,1.367-1.671,1.367h-1.974c-1.063,0-1.57-0.607-1.367-1.671l1.671-7.898
		c0.101-0.354-0.102-0.557-0.456-0.557h-4c-0.304,0-0.506,0.152-0.557,0.456l-1.771,8.303c-0.203,0.912-0.76,1.367-1.671,1.367
		H6.373c-1.063,0-1.569-0.607-1.367-1.671l1.671-7.898c0.102-0.354-0.102-0.557-0.456-0.557H1.461c-1.114,0-1.62-0.607-1.418-1.67
		l0.405-2.025c0.202-0.911,0.811-1.367,1.722-1.367h5.266c0.304,0,0.455-0.152,0.557-0.456l0.86-4.05
		c0.051-0.354-0.102-0.557-0.455-0.557H3.587c-1.063,0-1.569-0.607-1.366-1.671l0.404-2.025c0.203-0.912,0.76-1.367,1.671-1.367
		h5.266c0.304,0,0.506-0.152,0.557-0.456l1.772-8.303c0.202-0.911,0.759-1.367,1.671-1.367h1.975c1.063,0,1.569,0.607,1.366,1.67
		l-1.671,7.898c-0.101,0.354,0.102,0.557,0.456,0.557h4c0.304,0,0.506-0.152,0.557-0.456l1.772-8.303
		c0.202-0.911,0.759-1.367,1.67-1.367h1.975c1.063,0,1.569,0.607,1.367,1.67l-1.671,7.898c-0.101,0.354,0.102,0.557,0.456,0.557
		h4.759c1.063,0,1.569,0.607,1.367,1.671L31.535,35.3c-0.202,0.912-0.76,1.367-1.671,1.367H24.599z M18.979,37.224
		c0.051-0.354-0.102-0.557-0.456-0.557h-4.05c-0.304,0-0.456,0.152-0.557,0.456l-0.861,4.05c-0.051,0.354,0.102,0.557,0.456,0.557
		h4.05c0.304,0,0.456-0.152,0.558-0.456L18.979,37.224z"/>
</g>
<g>
	<path d="M214.154,19.705h-2.363v-8.721h2.363v1.03h-1.094v6.66h1.094V19.705z"/>
	<path d="M215.301,10.984h2.222c1.012,0,1.747,0.144,2.205,0.432c0.457,0.288,0.686,0.746,0.686,1.375c0,0.426-0.1,0.776-0.301,1.05
		c-0.199,0.273-0.466,0.438-0.798,0.493v0.049c0.452,0.101,0.778,0.29,0.979,0.566c0.199,0.277,0.3,0.645,0.3,1.104
		c0,0.651-0.235,1.159-0.706,1.523c-0.47,0.365-1.109,0.547-1.916,0.547h-2.671V10.984z M216.815,13.811h0.879
		c0.41,0,0.707-0.063,0.892-0.19c0.184-0.127,0.275-0.337,0.275-0.63c0-0.273-0.1-0.47-0.301-0.588
		c-0.199-0.119-0.516-0.178-0.949-0.178h-0.796V13.811z M216.815,15.012v1.86h0.986c0.417,0,0.724-0.08,0.923-0.239
		s0.298-0.404,0.298-0.732c0-0.592-0.423-0.889-1.27-0.889H216.815z"/>
	<path d="M226.131,18.123h-4.111v-7.139h4.111v1.24h-2.598v1.567h2.417v1.24h-2.417v1.841h2.598V18.123z"/>
	<path d="M230.375,18.123h-1.514v-5.879h-1.938v-1.26h5.391v1.26h-1.938V18.123z"/>
	<path d="M237.782,18.123l-0.518-1.699h-2.603l-0.518,1.699h-1.631l2.52-7.168h1.851l2.529,7.168H237.782z M236.903,15.154
		c-0.479-1.54-0.748-2.411-0.808-2.612c-0.061-0.202-0.104-0.361-0.13-0.479c-0.107,0.417-0.415,1.447-0.923,3.091H236.903z"/>
	<path d="M239.662,18.674h1.089v-6.66h-1.089v-1.03h2.363v8.721h-2.363V18.674z"/>
</g>
</svg>
