<?xml version="1.0" encoding="utf-8"?>
<!-- Generator: Adobe Illustrator 16.0.0, SVG Export Plug-In . SVG Version: 6.00 Build 0)  -->
<!DOCTYPE svg PUBLIC "-//W3C//DTD SVG 1.1//EN" "http://www.w3.org/Graphics/SVG/1.1/DTD/svg11.dtd">
<svg version="1.1" id="Layer_1" xmlns="http://www.w3.org/2000/svg" xmlns:xlink="http://www.w3.org/1999/xlink" x="0px" y="0px"
	 width="242.723px" height="78.435px" viewBox="0 0 242.723 78.435" enable-background="new 0 0 242.723 78.435"
	 xml:space="preserve">
<g>
	<g>
		<path fill="#FFFFFF" d="M51.947,35.181c-0.957,0.191-1.436-0.24-1.578-1.197c-0.335-1.961-1.913-3.205-4.162-3.205
			c-1.867,0-3.015,1.101-2.823,2.202c0.669,3.73,15.788,3.636,15.788,14.64c0,1.435-1.626,9.902-12.965,9.902
			c-10.048,0-12.201-6.601-12.439-10.333c-0.048-0.86,0.383-1.387,1.244-1.579l5.406-1.196c0.957-0.19,1.482,0.239,1.579,1.244
			c0.19,2.297,1.961,3.636,4.21,3.636c2.344,0,4.066-1.387,3.779-2.678c-0.909-4.067-15.311-3.157-15.311-14.161
			c-0.048-1.436,0.813-9.904,11.531-9.904c9.855,0,12.151,6.41,12.438,9.855c0.048,0.862-0.383,1.388-1.244,1.579L51.947,35.181z"/>
		<path fill="#FFFFFF" d="M81.25,48.417c0,2.511-0.533,9.25-9.554,9.25c-9.023,0-9.556-6.738-9.556-9.25V38.9
			c0-2.512,0.532-9.25,9.556-9.25c9.021,0,9.554,6.738,9.554,9.25V48.417z M74.703,40.917c0-2.931-0.191-4.72-3.007-4.72
			c-2.818,0-3.009,1.79-3.009,4.72v5.482c0,2.932,0.19,4.721,3.009,4.721c2.815,0,3.007-1.789,3.007-4.721V40.917z"/>
		<path fill="#FFFFFF" d="M89.854,30.334c0.762,0,1.142,0.383,1.142,1.144v14.921c0,2.932,0.191,4.721,3.008,4.721
			c2.817,0,3.008-1.789,3.008-4.721V31.478c0-0.761,0.418-1.144,1.141-1.144h4.264c0.763,0,1.143,0.383,1.143,1.144v16.939
			c0,2.511-0.533,9.25-9.555,9.25s-9.556-6.738-9.556-9.25V31.478c0-0.761,0.419-1.144,1.143-1.144H89.854z"/>
		<path fill="#FFFFFF" d="M113.876,30.334c0.646,0,1.066,0.267,1.334,0.875l5.176,12.677c0.152,0.343,0.455,0.267,0.455-0.113
			V31.478c0-0.761,0.422-1.144,1.145-1.144h4.264c0.76,0,1.141,0.383,1.141,1.144V55.84c0,0.722-0.381,1.142-1.141,1.142h-5.598
			c-0.646,0-1.064-0.267-1.33-0.875l-5.178-12.677c-0.154-0.343-0.457-0.267-0.457,0.114V55.84c0,0.722-0.381,1.142-1.143,1.142
			h-4.263c-0.724,0-1.142-0.42-1.142-1.142V31.478c0-0.761,0.418-1.144,1.142-1.144H113.876z"/>
		<path fill="#FFFFFF" d="M140.832,30.334c7.156,0,9.517,2.894,9.517,9.137v8.337c0,6.242-2.36,9.174-9.517,9.174h-8.489
			c-0.724,0-1.143-0.42-1.143-1.142V31.515c0-0.76,0.38-1.142,1.143-1.181H140.832z M140.946,50.434c1.826,0,2.74-0.305,2.74-2.587
			c0-0.039,0-8.338,0-8.375c0-2.36-0.914-2.588-2.74-2.588h-2.057c-0.723,0-1.142,0.38-1.142,1.142v11.268
			c0,0.722,0.419,1.142,1.142,1.142H140.946z"/>
		<path fill="#FFFFFF" d="M177.283,46.041c0,3.158-0.67,11.625-12.009,11.625c-11.338,0-12.009-8.467-12.009-11.625V34.08
			c0-3.159,0.671-11.625,12.009-11.625c11.339,0,12.009,8.467,12.009,11.625V46.041z M169.054,36.617c0-3.684-0.24-5.934-3.78-5.934
			s-3.779,2.25-3.779,5.934v6.889c0,3.684,0.239,5.932,3.779,5.932s3.78-2.249,3.78-5.932V36.617z"/>
		<path fill="#FFFFFF" d="M198.441,30.334c0.761,0,1.142,0.383,1.142,1.144v4.263c0,0.723-0.381,1.143-1.142,1.143h-9.593
			c-0.724,0-1.143,0.38-1.143,1.142v1.217c0,0.724,0.419,1.142,1.143,1.142h6.281c0.761,0,1.142,0.381,1.142,1.143v4.263
			c0,0.722-0.381,1.142-1.142,1.142h-6.281c-0.724,0-1.143,0.381-1.143,1.142v7.766c0,0.722-0.38,1.142-1.143,1.142h-4.491
			c-0.724,0-1.142-0.42-1.142-1.142V31.478c0-0.761,0.418-1.144,1.142-1.144H198.441z"/>
		<path fill="#FFFFFF" d="M219.38,30.334c0.76,0,1.141,0.383,1.141,1.144v4.263c0,0.723-0.381,1.143-1.141,1.143h-9.595
			c-0.724,0-1.143,0.38-1.143,1.142v1.217c0,0.724,0.419,1.142,1.143,1.142h6.281c0.761,0,1.143,0.381,1.143,1.143v4.263
			c0,0.722-0.382,1.142-1.143,1.142h-6.281c-0.724,0-1.143,0.381-1.143,1.142v7.766c0,0.722-0.379,1.142-1.141,1.142h-4.492
			c-0.724,0-1.143-0.42-1.143-1.142V31.478c0-0.761,0.419-1.144,1.143-1.144H219.38z"/>
	</g>
	<path fill="#DC4C6C" d="M184.083,14.472c-5.601-5.314-12.953-7.662-20.101-7.095l0.096,3.698c6.203-0.548,12.602,1.46,17.463,6.075
		c3.149,2.989,5.238,6.679,6.26,10.6h3.795C190.505,22.838,188,18.188,184.083,14.472z"/>
	<path fill="#DC4C6C" d="M179.371,19.484c-4.228-4.015-9.817-5.729-15.208-5.185l0.091,3.549c4.483-0.528,9.161,0.858,12.683,4.2
		c1.737,1.648,3.011,3.604,3.822,5.701h3.742C183.559,24.696,181.849,21.835,179.371,19.484z"/>
	<path fill="#DC4C6C" d="M189.107,9.179c-7.06-6.7-16.297-9.711-25.316-9.102l0.098,3.691c8.073-0.587,16.358,2.087,22.679,8.087
		c4.663,4.427,7.569,10.017,8.708,15.894h3.749C197.846,20.887,194.535,14.332,189.107,9.179z"/>
	<g>
		<path fill="#FFFFFF" d="M124.312,75.735c-1.146,0.516-2.146,0.689-3.523,0.689c-3.178,0-5.977-2.279-5.977-6.033
			c0-3.907,2.854-7.296,7.162-7.296c3.393,0,5.805,2.317,5.805,5.535c0,2.815-1.57,4.578-3.639,4.578
			c-0.9,0-1.551-0.479-1.646-1.475h-0.039c-0.613,0.957-1.457,1.475-2.49,1.475c-1.227,0-2.145-0.94-2.145-2.509
			c0-2.356,1.744-4.461,4.5-4.461c0.846,0,1.799,0.209,2.279,0.456l-0.574,3.565c-0.193,1.128-0.057,1.647,0.479,1.666
			c0.824,0.039,1.857-1.016,1.857-3.235c0-2.51-1.607-4.425-4.578-4.425c-2.949,0-5.496,2.28-5.496,5.956
			c0,3.218,2.031,5.017,4.885,5.017c0.977,0,2.031-0.211,2.797-0.593L124.312,75.735z M122.609,67.824
			c-0.154-0.039-0.365-0.077-0.594-0.077c-1.266,0-2.26,1.246-2.26,2.722c0,0.726,0.324,1.187,0.957,1.187
			c0.709,0,1.453-0.9,1.627-2.011L122.609,67.824z"/>
		<path fill="#FFFFFF" d="M139.323,74.088c-0.519,0.248-1.744,0.554-3.295,0.554c-4.461,0-6.763-2.796-6.763-6.473
			c0-4.405,3.142-6.836,7.05-6.836c1.513,0,2.66,0.287,3.179,0.572l-0.614,2.3c-0.573-0.248-1.396-0.48-2.45-0.48
			c-2.298,0-4.099,1.398-4.099,4.272c0,2.585,1.532,4.214,4.117,4.214c0.9,0,1.858-0.173,2.452-0.423L139.323,74.088z"/>
		<path fill="#FFFFFF" d="M150.042,69.645c0,3.428-2.433,4.998-4.94,4.998c-2.738,0-4.847-1.8-4.847-4.826
			c0-3.046,1.993-4.979,5.017-4.979C148.127,64.837,150.042,66.811,150.042,69.645z M143.261,69.74c0,1.608,0.672,2.814,1.917,2.814
			c1.147,0,1.855-1.129,1.855-2.835c0-1.378-0.534-2.794-1.855-2.794C143.797,66.925,143.261,68.36,143.261,69.74z"/>
		<path fill="#FFFFFF" d="M151.835,68.053c0-1.168-0.037-2.145-0.074-2.985h2.526l0.135,1.301h0.056
			c0.384-0.613,1.324-1.513,2.894-1.513c1.914,0,3.351,1.284,3.351,4.04v5.535h-2.91v-5.19c0-1.205-0.422-2.03-1.475-2.03
			c-0.804,0-1.283,0.556-1.495,1.092c-0.076,0.192-0.095,0.459-0.095,0.728v5.4h-2.912V68.053z"/>
		<path fill="#FFFFFF" d="M171.92,73.072c0,1.8-0.36,3.276-1.434,4.213c-1.017,0.88-2.413,1.149-3.793,1.149
			c-1.244,0-2.528-0.25-3.37-0.708l0.572-2.223c0.594,0.345,1.61,0.709,2.721,0.709c1.378,0,2.434-0.729,2.434-2.471v-0.595h-0.038
			c-0.556,0.768-1.456,1.208-2.529,1.208c-2.317,0-3.965-1.877-3.965-4.559c0-3.027,1.935-4.941,4.254-4.941
			c1.281,0,2.085,0.556,2.564,1.339h0.038l0.096-1.127h2.528c-0.038,0.611-0.078,1.397-0.078,2.794V73.072z M169.012,68.878
			c0-0.172-0.021-0.363-0.06-0.536c-0.21-0.767-0.765-1.283-1.57-1.283c-1.072,0-1.916,0.958-1.916,2.661
			c0,1.399,0.689,2.492,1.898,2.492c0.767,0,1.359-0.5,1.552-1.168c0.074-0.231,0.096-0.538,0.096-0.786V68.878z"/>
		<path fill="#FFFFFF" d="M174.254,68.151c0-1.38-0.02-2.28-0.075-3.083h2.489l0.113,1.722h0.076
			c0.479-1.378,1.609-1.953,2.529-1.953c0.268,0,0.402,0.019,0.613,0.058v2.738c-0.229-0.039-0.46-0.077-0.785-0.077
			c-1.072,0-1.8,0.574-1.992,1.475c-0.039,0.192-0.058,0.42-0.058,0.651v4.749h-2.911V68.151z"/>
		<path fill="#FFFFFF" d="M183.618,70.677c0.074,1.208,1.283,1.781,2.641,1.781c0.997,0,1.802-0.133,2.587-0.401l0.384,1.973
			c-0.959,0.401-2.127,0.594-3.392,0.594c-3.179,0-4.999-1.84-4.999-4.769c0-2.376,1.475-4.999,4.73-4.999
			c3.025,0,4.176,2.354,4.176,4.672c0,0.498-0.058,0.94-0.096,1.149H183.618z M187.043,68.688c0-0.709-0.307-1.897-1.646-1.897
			c-1.228,0-1.725,1.13-1.801,1.897H187.043z"/>
		<path fill="#FFFFFF" d="M191.463,71.904c0.537,0.326,1.648,0.689,2.512,0.689c0.88,0,1.242-0.288,1.242-0.764
			c0-0.5-0.287-0.731-1.359-1.093c-1.954-0.652-2.699-1.705-2.681-2.816c0-1.762,1.493-3.083,3.812-3.083
			c1.092,0,2.049,0.267,2.624,0.555l-0.496,2.012c-0.423-0.23-1.247-0.539-2.033-0.539c-0.707,0-1.108,0.288-1.108,0.75
			c0,0.458,0.361,0.688,1.512,1.09c1.78,0.613,2.51,1.532,2.528,2.891c0,1.763-1.36,3.046-4.04,3.046
			c-1.227,0-2.318-0.286-3.026-0.671L191.463,71.904z"/>
		<path fill="#FFFFFF" d="M199.772,71.904c0.535,0.326,1.646,0.689,2.51,0.689c0.882,0,1.243-0.288,1.243-0.764
			c0-0.5-0.287-0.731-1.359-1.093c-1.954-0.652-2.698-1.705-2.681-2.816c0-1.762,1.493-3.083,3.812-3.083
			c1.091,0,2.05,0.267,2.624,0.555l-0.498,2.012c-0.423-0.23-1.245-0.539-2.029-0.539c-0.709,0-1.111,0.288-1.111,0.75
			c0,0.458,0.362,0.688,1.512,1.09c1.78,0.613,2.511,1.532,2.528,2.891c0,1.763-1.359,3.046-4.04,3.046
			c-1.227,0-2.318-0.286-3.026-0.671L199.772,71.904z"/>
	</g>
</g>
<g>
	<path fill="#FFFFFF" d="M24.599,36.667c-0.305,0-0.456,0.152-0.558,0.456l-0.86,4.05c-0.051,0.354,0.102,0.557,0.456,0.557h4.81
		c1.063,0,1.569,0.607,1.366,1.67l-0.404,2.025c-0.203,0.911-0.76,1.367-1.671,1.367h-5.266c-0.304,0-0.506,0.152-0.557,0.456
		l-1.772,8.303c-0.202,0.912-0.759,1.367-1.671,1.367h-1.974c-1.063,0-1.57-0.607-1.367-1.671l1.671-7.898
		c0.101-0.354-0.102-0.557-0.456-0.557h-4c-0.304,0-0.506,0.152-0.557,0.456l-1.771,8.303c-0.203,0.912-0.76,1.367-1.671,1.367
		H6.373c-1.063,0-1.569-0.607-1.367-1.671l1.671-7.898c0.102-0.354-0.102-0.557-0.456-0.557H1.461c-1.114,0-1.62-0.607-1.418-1.67
		l0.405-2.025c0.202-0.911,0.811-1.367,1.722-1.367h5.266c0.304,0,0.455-0.152,0.557-0.456l0.86-4.05
		c0.051-0.354-0.102-0.557-0.455-0.557H3.587c-1.063,0-1.569-0.607-1.366-1.671l0.404-2.025c0.203-0.912,0.76-1.367,1.671-1.367
		h5.266c0.304,0,0.506-0.152,0.557-0.456l1.772-8.303c0.202-0.911,0.759-1.367,1.671-1.367h1.975c1.063,0,1.569,0.607,1.366,1.67
		l-1.671,7.898c-0.101,0.354,0.102,0.557,0.456,0.557h4c0.304,0,0.506-0.152,0.557-0.456l1.772-8.303
		c0.202-0.911,0.759-1.367,1.67-1.367h1.975c1.063,0,1.569,0.607,1.367,1.67l-1.671,7.898c-0.101,0.354,0.102,0.557,0.456,0.557
		h4.759c1.063,0,1.569,0.607,1.367,1.671L31.535,35.3c-0.202,0.912-0.76,1.367-1.671,1.367H24.599z M18.979,37.224
		c0.051-0.354-0.102-0.557-0.456-0.557h-4.05c-0.304,0-0.456,0.152-0.557,0.456l-0.861,4.05c-0.051,0.354,0.102,0.557,0.456,0.557
		h4.05c0.304,0,0.456-0.152,0.558-0.456L18.979,37.224z"/>
</g>
<g>
	<path fill="#FFFFFF" d="M214.154,19.705h-2.363v-8.721h2.363v1.03h-1.094v6.66h1.094V19.705z"/>
	<path fill="#FFFFFF" d="M215.301,10.984h2.222c1.012,0,1.747,0.144,2.205,0.432c0.457,0.288,0.686,0.746,0.686,1.375
		c0,0.426-0.1,0.776-0.301,1.05c-0.199,0.273-0.466,0.438-0.798,0.493v0.049c0.452,0.101,0.778,0.29,0.979,0.566
		c0.199,0.277,0.3,0.645,0.3,1.104c0,0.651-0.235,1.159-0.706,1.523c-0.47,0.365-1.109,0.547-1.916,0.547h-2.671V10.984z
		 M216.815,13.811h0.879c0.41,0,0.707-0.063,0.892-0.19c0.184-0.127,0.275-0.337,0.275-0.63c0-0.273-0.1-0.47-0.301-0.588
		c-0.199-0.119-0.516-0.178-0.949-0.178h-0.796V13.811z M216.815,15.012v1.86h0.986c0.417,0,0.724-0.08,0.923-0.239
		s0.298-0.404,0.298-0.732c0-0.592-0.423-0.889-1.27-0.889H216.815z"/>
	<path fill="#FFFFFF" d="M226.131,18.123h-4.111v-7.139h4.111v1.24h-2.598v1.567h2.417v1.24h-2.417v1.841h2.598V18.123z"/>
	<path fill="#FFFFFF" d="M230.375,18.123h-1.514v-5.879h-1.938v-1.26h5.391v1.26h-1.938V18.123z"/>
	<path fill="#FFFFFF" d="M237.782,18.123l-0.518-1.699h-2.603l-0.518,1.699h-1.631l2.52-7.168h1.851l2.529,7.168H237.782z
		 M236.903,15.154c-0.479-1.54-0.748-2.411-0.808-2.612c-0.061-0.202-0.104-0.361-0.13-0.479c-0.107,0.417-0.415,1.447-0.923,3.091
		H236.903z"/>
	<path fill="#FFFFFF" d="M239.662,18.674h1.089v-6.66h-1.089v-1.03h2.363v8.721h-2.363V18.674z"/>
</g>
</svg>
